<svg width="115" height="44" viewBox="0 0 115 44" fill="none" xmlns="http://www.w3.org/2000/svg">
<path d="M0.43335 43.0666V39.6C0.43335 36.4889 2.12224 33.8889 5.50002 31.8C8.87779 29.7111 13.1889 28.6666 18.4333 28.6666C19.1445 28.6666 19.9445 28.7111 20.8333 28.8C21.7222 28.8889 22.7 29.0222 23.7667 29.2C23.0556 30.5333 22.5445 31.8889 22.2333 33.2666C21.9222 34.6444 21.7667 36 21.7667 37.3333V43.0666H0.43335ZM32.4333 43.0666V37.8666C32.4333 35.9253 33.0111 34.1511 34.1667 32.544C35.3222 30.9369 37.0556 29.5555 39.3667 28.4C41.6778 27.2444 44.3445 26.3777 47.3667 25.8C50.3889 25.2222 53.7489 24.9333 57.4467 24.9333C61.2156 24.9333 64.6111 25.2222 67.6333 25.8C70.6556 26.3777 73.3222 27.2444 75.6333 28.4C77.9445 29.5555 79.6778 30.9369 80.8333 32.544C81.9889 34.1511 82.5667 35.9253 82.5667 37.8666V43.0666H32.4333ZM93.2333 43.0666V37.3733C93.2333 35.8551 93.0778 34.4244 92.7667 33.0813C92.4556 31.7382 91.9889 30.4444 91.3667 29.2C92.5222 29.0222 93.5222 28.8889 94.3667 28.8C95.2111 28.7111 95.9889 28.6666 96.7 28.6666C101.944 28.6666 106.233 29.7111 109.567 31.8C112.9 33.8889 114.567 36.4889 114.567 39.6V43.0666H93.2333ZM36.1667 39.3333H78.8333V37.8666C78.8333 35.1111 76.8778 32.8889 72.9667 31.2C69.0556 29.5111 63.9 28.6666 57.5 28.6666C51.1 28.6666 45.9445 29.5111 42.0333 31.2C38.1222 32.8889 36.1667 35.1111 36.1667 37.8666V39.3333ZM18.3973 23.7333C16.5547 23.7333 14.9889 23.0804 13.7 21.7746C12.4111 20.4689 11.7667 18.8995 11.7667 17.0666C11.7667 15.2889 12.4196 13.7555 13.7253 12.4666C15.0311 11.1777 16.6005 10.5333 18.4333 10.5333C20.2111 10.5333 21.7667 11.1777 23.1 12.4666C24.4333 13.7555 25.1 15.3022 25.1 17.1066C25.1 18.8577 24.4578 20.4 23.1733 21.7333C21.8889 23.0666 20.2969 23.7333 18.3973 23.7333ZM96.7 23.7333C94.9222 23.7333 93.3667 23.0666 92.0333 21.7333C90.7 20.4 90.0333 18.8577 90.0333 17.1066C90.0333 15.3022 90.7 13.7555 92.0333 12.4666C93.3667 11.1777 94.9307 10.5333 96.7253 10.5333C98.5751 10.5333 100.144 11.1777 101.433 12.4666C102.722 13.7555 103.367 15.2889 103.367 17.0666C103.367 18.8995 102.728 20.4689 101.451 21.7746C100.172 23.0804 98.5889 23.7333 96.7 23.7333ZM57.5467 20.9333C54.6711 20.9333 52.2111 19.9222 50.1667 17.9C48.1222 15.8777 47.1 13.4222 47.1 10.5333C47.1 7.58663 48.1111 5.11641 50.1333 3.12263C52.1556 1.12974 54.6111 0.133301 57.5 0.133301C60.4467 0.133301 62.9169 1.1253 64.9107 3.1093C66.9036 5.09419 67.9 7.5533 67.9 10.4866C67.9 13.3622 66.908 15.8222 64.924 17.8666C62.9391 19.9111 60.48 20.9333 57.5467 20.9333ZM57.5667 17.2C59.3889 17.2 60.9445 16.5333 62.2333 15.2C63.5222 13.8666 64.1667 12.2889 64.1667 10.4666C64.1667 8.64441 63.528 7.08886 62.2507 5.79997C60.9725 4.51108 59.3889 3.86663 57.5 3.86663C55.7222 3.86663 54.1667 4.5053 52.8333 5.78263C51.5 7.06086 50.8333 8.64441 50.8333 10.5333C50.8333 12.3111 51.5 13.8666 52.8333 15.2C54.1667 16.5333 55.7445 17.2 57.5667 17.2Z" fill="#165463"/>
</svg>
