<svg width="94" height="94" viewBox="0 0 94 94" fill="none" xmlns="http://www.w3.org/2000/svg">
<path d="M41.5 25.2C48.8778 25.2 56.4556 24.1111 64.2333 21.9333C72.0111 19.7556 76.7445 17.4222 78.4333 14.9333C76.8333 12.3556 72.2556 10 64.7 7.86668C57.1445 5.73335 49.4111 4.66668 41.5 4.66668C33.9445 4.66668 26.2556 5.73335 18.4333 7.86668C10.6111 10 5.90002 12.3556 4.30002 14.9333C5.81113 17.5111 10.3667 19.8667 17.9667 22C25.5667 24.1333 33.4111 25.2 41.5 25.2ZM39.1 79.3333C39.3667 80.0445 39.6556 80.6889 39.9667 81.2667C40.2778 81.8445 40.6556 82.4445 41.1 83.0667C35.1445 83.0667 29.6556 82.6889 24.6333 81.9333C19.6111 81.1778 15.3222 80.1111 11.7667 78.7333C8.21113 77.3556 5.43335 75.6889 3.43335 73.7333C1.43335 71.7778 0.43335 69.6445 0.43335 67.3333V15.3333C0.43335 13.5556 1.61113 11.8 3.96668 10.0667C6.32224 8.33335 9.43335 6.80002 13.3 5.46668C17.1667 4.13335 21.5667 3.04446 26.5 2.20002C31.4333 1.35557 36.4333 0.93335 41.5 0.93335C46.4778 0.93335 51.4333 1.35557 56.3667 2.20002C61.3 3.04446 65.7 4.15557 69.5667 5.53335C73.4333 6.91113 76.5667 8.44446 78.9667 10.1333C81.3667 11.8222 82.5667 13.5556 82.5667 15.3333C82.5667 16.8445 81.2778 18.4 78.7 20C76.1222 21.6 72.8333 23.0667 68.8333 24.4C64.8333 25.7333 60.4111 26.8222 55.5667 27.6667C50.7222 28.5111 46.0333 28.9333 41.5 28.9333C34.1222 28.9333 27.1222 28.1556 20.5 26.6C13.8778 25.0445 8.43335 22.8889 4.16668 20.1333V43.7333C8.16668 46.3111 13.2556 48.3111 19.4333 49.7333C25.6111 51.1556 32.4333 51.9556 39.9 52.1333C39.6333 52.5778 39.3445 53.0889 39.0333 53.6667C38.7222 54.2445 38.4333 54.9778 38.1667 55.8667C32.4778 55.6889 26.5222 55 20.3 53.8C14.0778 52.6 8.70002 50.6222 4.16668 47.8667V68.6667C6.21113 71.8667 10.3222 74.4 16.5 76.2667C22.6778 78.1333 30.2111 79.1556 39.1 79.3333ZM90.5667 93.7333L76.4333 79.7333C74.9222 80.7111 73.2778 81.5111 71.5 82.1333C69.7222 82.7556 67.9 83.0667 66.0333 83.0667C61.5 83.0667 57.6111 81.4445 54.3667 78.2C51.1222 74.9556 49.5 71.0667 49.5 66.5333C49.5 62 51.1222 58.1111 54.3667 54.8667C57.6111 51.6222 61.5 50 66.0333 50C70.5667 50 74.4556 51.6222 77.7 54.8667C80.9445 58.1111 82.5667 62 82.5667 66.5333C82.5667 68.4 82.3 70.2445 81.7667 72.0667C81.2333 73.8889 80.3445 75.5111 79.1 76.9333L93.2333 91.0667L90.5667 93.7333ZM66.0333 79.3333C69.5889 79.3333 72.6111 78.0889 75.1 75.6C77.5889 73.1111 78.8333 70.0889 78.8333 66.5333C78.8333 62.9778 77.5889 59.9556 75.1 57.4667C72.6111 54.9778 69.5889 53.7333 66.0333 53.7333C62.4778 53.7333 59.4556 54.9778 56.9667 57.4667C54.4778 59.9556 53.2333 62.9778 53.2333 66.5333C53.2333 70.0889 54.4778 73.1111 56.9667 75.6C59.4556 78.0889 62.4778 79.3333 66.0333 79.3333Z" fill="#165463"/>
</svg>
