<svg width="105" height="62" viewBox="0 0 105 62" fill="none" xmlns="http://www.w3.org/2000/svg">
<path d="M31.1667 61.4001C22.7222 61.4001 15.5444 58.4445 9.63333 52.5334C3.72222 46.6223 0.766663 39.4445 0.766663 31.0001C0.766663 22.5557 3.72222 15.3779 9.63333 9.46676C15.5444 3.55565 22.7222 0.600098 31.1667 0.600098C34.6333 0.600098 37.9444 1.13343 41.1 2.2001C44.2556 3.26676 47.1222 4.82232 49.7 6.86676C49.2556 7.31121 48.8333 7.77788 48.4333 8.26676C48.0333 8.75565 47.6111 9.22232 47.1667 9.66677C44.9444 7.97788 42.4778 6.66676 39.7667 5.73343C37.0556 4.8001 34.1889 4.33343 31.1667 4.33343C23.7889 4.33343 17.5 6.93343 12.3 12.1334C7.1 17.3334 4.5 23.6223 4.5 31.0001C4.5 38.3779 7.1 44.6668 12.3 49.8668C17.5 55.0668 23.7889 57.6668 31.1667 57.6668C34.1889 57.6668 37.0556 57.2001 39.7667 56.2668C42.4778 55.3334 44.9444 54.0223 47.1667 52.3334C47.6111 52.7779 48.0333 53.2445 48.4333 53.7334C48.8333 54.2223 49.2556 54.689 49.7 55.1334C47.1222 57.1779 44.2556 58.7334 41.1 59.8001C37.9444 60.8668 34.6333 61.4001 31.1667 61.4001ZM73.8333 61.4001C70.3667 61.4001 67.0556 60.8668 63.9 59.8001C60.7444 58.7334 57.8778 57.1779 55.3 55.1334C55.7444 54.689 56.1667 54.2223 56.5667 53.7334C56.9667 53.2445 57.3889 52.7779 57.8333 52.3334C60.0556 54.0223 62.5222 55.3334 65.2333 56.2668C67.9444 57.2001 70.8111 57.6668 73.8333 57.6668C81.2111 57.6668 87.5 55.0668 92.7 49.8668C97.9 44.6668 100.5 38.3779 100.5 31.0001C100.5 23.6223 97.9 17.3334 92.7 12.1334C87.5 6.93343 81.2111 4.33343 73.8333 4.33343C70.8111 4.33343 67.9444 4.8001 65.2333 5.73343C62.5222 6.66676 60.0556 7.97788 57.8333 9.66677C57.3889 9.22232 56.9667 8.75565 56.5667 8.26676C56.1667 7.77788 55.7444 7.31121 55.3 6.86676C57.8778 4.82232 60.7444 3.26676 63.9 2.2001C67.0556 1.13343 70.3667 0.600098 73.8333 0.600098C82.2778 0.600098 89.4556 3.55565 95.3667 9.46676C101.278 15.3779 104.233 22.5557 104.233 31.0001C104.233 39.4445 101.278 46.6223 95.3667 52.5334C89.4556 58.4445 82.2778 61.4001 73.8333 61.4001ZM52.5 52.6001C49.6556 49.7557 47.4333 46.4668 45.8333 42.7334C44.2333 39.0001 43.4333 35.089 43.4333 31.0001C43.4333 26.9112 44.2333 23.0001 45.8333 19.2668C47.4333 15.5334 49.6556 12.2445 52.5 9.4001C55.3444 12.2445 57.5667 15.5334 59.1667 19.2668C60.7667 23.0001 61.5667 26.9112 61.5667 31.0001C61.5667 35.089 60.7667 39.0001 59.1667 42.7334C57.5667 46.4668 55.3444 49.7557 52.5 52.6001Z" fill="#165463"/>
</svg>
