<svg width="129" height="128" viewBox="0 0 129 128" fill="none" xmlns="http://www.w3.org/2000/svg">
<path d="M19.5667 110.133L27.4333 70.7999H101.433L109.3 110.133H19.5667ZM21.3 21.3332V17.5999H35.3V21.3332H21.3ZM24.2333 106.4H62.6333V92.5332H27.0333L24.2333 106.4ZM32.3667 49.0666L29.7 46.5332L39.5667 36.6666L42.2333 39.1999L32.3667 49.0666ZM27.8333 88.7999H62.6333V74.5332H30.6333L27.8333 88.7999ZM64.5 37.4666C58.9 37.4666 54.1667 35.5332 50.3 31.6666C46.4333 27.7999 44.5 23.0666 44.5 17.4666H48.2333C48.2333 21.9848 49.8164 25.8257 52.9827 28.9892C56.1489 32.1519 59.9933 33.7332 64.516 33.7332C69.0387 33.7332 72.8778 32.1519 76.0333 28.9892C79.1889 25.8257 80.7667 21.9848 80.7667 17.4666H84.5C84.5 23.0666 82.5667 27.7999 78.7 31.6666C74.8333 35.5332 70.1 37.4666 64.5 37.4666ZM62.6333 59.9999V45.9999H66.3667V59.9999H62.6333ZM66.3667 106.4H104.633L101.833 92.5332H66.3667V106.4ZM66.3667 88.7999H101.033L98.2333 74.5332H66.3667V88.7999ZM96.9 49.1999L86.9 39.1999L89.4333 36.6666L99.5667 46.5332L96.9 49.1999ZM93.7 21.3332V17.5999H107.7V21.3332H93.7Z" fill="#165463"/>
</svg>
