<svg width="105" height="93" viewBox="0 0 105 93" fill="none" xmlns="http://www.w3.org/2000/svg">
<path d="M50.6334 89.2665C51.4334 89.2665 52.2556 89.0888 53.1001 88.7332C53.9445 88.3777 54.6334 87.9332 55.1667 87.3999L96.1001 46.4665C97.5223 45.0443 98.6334 43.6221 99.4334 42.1999C100.233 40.7777 100.633 39.1777 100.633 37.3999C100.633 35.6221 100.233 33.8888 99.4334 32.1999C98.6334 30.511 97.5223 28.9554 96.1001 27.5332L76.9001 8.33322C75.4778 6.911 74.0556 5.86655 72.6334 5.19989C71.2112 4.53322 69.6112 4.19989 67.8334 4.19989C66.0556 4.19989 64.4334 4.53322 62.9667 5.19989C61.5001 5.86655 60.1001 6.911 58.7667 8.33322L53.1667 13.9332L63.0334 23.7999C64.0112 24.7777 64.7445 25.8888 65.2334 27.1332C65.7223 28.3777 65.9667 29.6221 65.9667 30.8666C65.9667 33.3554 65.1667 35.3999 63.5667 36.9999C61.9667 38.5999 59.9223 39.3999 57.4334 39.3999C56.1889 39.3999 54.9667 39.2221 53.7667 38.8666C52.5667 38.511 51.4778 37.8443 50.5001 36.8666L40.2334 26.5999L17.3001 49.5332C16.6778 50.1554 16.2112 50.8666 15.9001 51.6665C15.5889 52.4665 15.4334 53.2665 15.4334 54.0666C15.4334 55.4888 15.8778 56.6443 16.7667 57.5332C17.6556 58.4221 18.8112 58.8666 20.2334 58.8666C21.0334 58.8666 21.8556 58.6888 22.7001 58.3332C23.5445 57.9777 24.2334 57.5332 24.7667 56.9999L41.3001 40.4665L43.9667 43.1332L27.4334 59.6665C26.8112 60.2888 26.3445 60.9999 26.0334 61.7999C25.7223 62.5999 25.5667 63.3999 25.5667 64.1999C25.5667 65.5332 26.0334 66.6665 26.9667 67.5999C27.9001 68.5332 29.0334 68.9999 30.3667 68.9999C31.1667 68.9999 31.9889 68.8221 32.8334 68.4665C33.6778 68.111 34.3667 67.6665 34.9001 67.1332L53.0334 48.9999L55.7001 51.6665L37.5667 69.7999C37.0334 70.3332 36.5889 71.0221 36.2334 71.8665C35.8778 72.711 35.7001 73.5332 35.7001 74.3332C35.7001 75.6665 36.1667 76.7999 37.1001 77.7332C38.0334 78.6665 39.1667 79.1332 40.5001 79.1332C41.3001 79.1332 42.1001 78.9777 42.9001 78.6665C43.7001 78.3554 44.4112 77.8888 45.0334 77.2665L63.1667 59.1332L65.8334 61.7999L47.7001 79.9332C47.0778 80.5554 46.6112 81.311 46.3001 82.1999C45.9889 83.0888 45.8334 83.8888 45.8334 84.5999C45.8334 86.0221 46.3223 87.1554 47.3001 87.9999C48.2778 88.8443 49.3889 89.2665 50.6334 89.2665ZM50.6334 92.9999C48.0556 92.9999 45.8778 92.0221 44.1001 90.0665C42.3223 88.111 41.6556 85.711 42.1001 82.8665C39.0778 83.0443 36.5667 82.2443 34.5667 80.4665C32.5667 78.6888 31.7001 76.111 31.9667 72.7332C28.5889 72.911 25.9667 72.0666 24.1001 70.1999C22.2334 68.3332 21.4778 65.7999 21.8334 62.5999C18.9889 62.7777 16.5889 62.1332 14.6334 60.6665C12.6778 59.1999 11.7001 56.9999 11.7001 54.0666C11.7001 52.8221 11.9445 51.5554 12.4334 50.2665C12.9223 48.9777 13.6556 47.8443 14.6334 46.8666L40.2334 21.2666L52.9001 33.9332C53.4334 34.4665 54.0778 34.911 54.8334 35.2666C55.5889 35.6221 56.4556 35.7999 57.4334 35.7999C58.6778 35.7999 59.7889 35.3554 60.7667 34.4665C61.7445 33.5777 62.2334 32.4221 62.2334 30.9999C62.2334 30.0221 62.0556 29.1554 61.7001 28.3999C61.3445 27.6443 60.9001 26.9999 60.3667 26.4666L42.2334 8.33322C40.8112 6.911 39.3667 5.86655 37.9001 5.19989C36.4334 4.53322 34.8112 4.19989 33.0334 4.19989C31.2556 4.19989 29.6778 4.53322 28.3001 5.19989C26.9223 5.86655 25.5223 6.911 24.1001 8.33322L8.63339 23.7999C7.38895 25.0443 6.38895 26.5332 5.63339 28.2666C4.87783 29.9999 4.50006 31.7999 4.50006 33.6665C4.50006 34.911 4.63339 36.0888 4.90006 37.1999C5.16672 38.311 5.56672 39.3554 6.10006 40.3332L3.16672 43.2666C2.45561 42.0221 1.87783 40.5554 1.43339 38.8666C0.988946 37.1777 0.766724 35.4443 0.766724 33.6665C0.766724 31.2666 1.21117 28.9777 2.10006 26.7999C2.98895 24.6221 4.27783 22.6888 5.96672 20.9999L21.3001 5.66655C23.0778 3.88877 24.9223 2.57766 26.8334 1.73322C28.7445 0.888775 30.8556 0.466553 33.1667 0.466553C35.4778 0.466553 37.5667 0.888775 39.4334 1.73322C41.3001 2.57766 43.1223 3.88877 44.9001 5.66655L50.5001 11.2666L56.1001 5.66655C57.8778 3.88877 59.7001 2.57766 61.5667 1.73322C63.4334 0.888775 65.5223 0.466553 67.8334 0.466553C70.1445 0.466553 72.2556 0.888775 74.1667 1.73322C76.0778 2.57766 77.9223 3.88877 79.7001 5.66655L98.7667 24.7332C100.545 26.511 101.922 28.4888 102.9 30.6666C103.878 32.8443 104.367 35.0888 104.367 37.3999C104.367 39.711 103.878 41.7999 102.9 43.6665C101.922 45.5332 100.545 47.3554 98.7667 49.1332L57.8334 90.0665C56.7667 91.1332 55.6334 91.8888 54.4334 92.3332C53.2334 92.7777 51.9667 92.9999 50.6334 92.9999Z" fill="#165463"/>
</svg>
