<svg width="129" height="128" viewBox="0 0 129 128" fill="none" xmlns="http://www.w3.org/2000/svg">
<path d="M34.1 99.6667C30.7222 96.2445 28.1 92.3458 26.2333 87.9707C24.3667 83.5956 23.4333 79.0721 23.4333 74.4001C23.4333 69.6889 24.3445 64.9778 26.1667 60.2667C27.9889 55.5556 30.9 51.2001 34.9 47.2001C38.3667 43.7334 42.7889 41.0445 48.1667 39.1334C53.5445 37.2223 59.2556 35.8667 65.3 35.0667C71.3445 34.2667 77.4111 33.8445 83.5 33.8001C89.5889 33.7556 95.0778 33.8667 99.9667 34.1334C100.322 38.9334 100.478 44.3778 100.433 50.4667C100.389 56.5556 99.9222 62.6223 99.0334 68.6667C98.1445 74.7112 96.7445 80.4223 94.8334 85.8C92.9222 91.1778 90.2778 95.5556 86.9 98.9334C82.9889 102.933 78.7445 105.844 74.1667 107.667C69.5889 109.489 65.0218 110.4 60.4654 110.4C55.6885 110.4 50.9445 109.467 46.2334 107.6C41.5222 105.733 37.4778 103.089 34.1 99.6667ZM41.3 100.8C44.1445 102.756 47.2778 104.222 50.7 105.2C54.1222 106.178 57.3889 106.667 60.5 106.667C64.6494 106.667 68.7534 105.867 72.812 104.267C76.8707 102.667 80.6778 100 84.2334 96.2667C85.8165 94.6667 87.4218 92.4223 89.0494 89.5334C90.6769 86.6445 92.0845 82.8667 93.272 78.2001C94.4596 73.5334 95.3609 67.8889 95.976 61.2667C96.592 54.6445 96.7667 46.7556 96.5 37.6001C92.1445 37.4223 87.1889 37.4001 81.6334 37.5334C76.0778 37.6667 70.5222 38.1556 64.9667 39.0001C59.4111 39.8445 54.2111 41.1112 49.3667 42.8001C44.5222 44.4889 40.6778 46.7556 37.8334 49.6C33.9222 53.5112 31.1667 57.6223 29.5667 61.9334C27.9667 66.2445 27.1667 70.2223 27.1667 73.8667C27.1667 78.5778 28.1222 83.0667 30.0333 87.3334C31.9445 91.6 34.4556 95.0223 37.5667 97.6C39.3445 91.5556 42.3445 85.7556 46.5667 80.2001C50.7889 74.6445 57.1222 69.2445 65.5667 64C59.5222 69.2445 54.5 74.7112 50.5 80.4001C46.5 86.0889 43.4334 92.8889 41.3 100.8Z" fill="#165463"/>
</svg>
