<svg width="94" height="99" viewBox="0 0 94 99" fill="none" xmlns="http://www.w3.org/2000/svg">
<path d="M3.83333 57.4666L0.766663 55.3333L22.2333 20.7999L37.4333 38.6666L57.4333 5.99993L72.6333 28.9333L90.5 0.266602L93.3 2.53327L72.6333 35.7333L57.5667 12.9333L37.9667 44.9333L22.7667 27.0666L3.83333 57.4666ZM63.168 83.9999C67.6115 83.9999 71.3667 82.4661 74.4333 79.3986C77.5 76.3302 79.0333 72.5746 79.0333 68.1319C79.0333 63.6884 77.4995 59.9333 74.432 56.8666C71.3635 53.7999 67.608 52.2666 63.1653 52.2666C58.7218 52.2666 54.9667 53.8004 51.9 56.8679C48.8333 59.9364 47.3 63.6919 47.3 68.1346C47.3 72.5782 48.8338 76.3333 51.9013 79.3999C54.9698 82.4666 58.7253 83.9999 63.168 83.9999ZM90.7667 98.3999L75.5667 83.1999C73.8778 84.6222 71.9889 85.7333 69.9 86.5333C67.8111 87.3333 65.5667 87.7333 63.1667 87.7333C57.7222 87.7333 53.0947 85.8302 49.284 82.0239C45.4724 78.2168 43.5667 73.5946 43.5667 68.1573C43.5667 62.719 45.4698 58.0888 49.276 54.2666C53.0831 50.4444 57.7053 48.5333 63.1427 48.5333C68.5809 48.5333 73.2111 50.4386 77.0333 54.2493C80.8555 58.0608 82.7667 62.6888 82.7667 68.1333C82.7667 70.5333 82.3667 72.7999 81.5667 74.9333C80.7667 77.0666 79.6555 78.9777 78.2333 80.6666L93.3 95.8666L90.7667 98.3999Z" fill="#165463"/>
</svg>
