<svg width="24" height="24" viewBox="0 0 24 24" fill="none" xmlns="http://www.w3.org/2000/svg">
<path d="M12 23.0832C10.4804 23.0832 9.04639 22.7919 7.69791 22.2093C6.34944 21.6268 5.17344 20.8336 4.16991 19.8299C3.16619 18.8264 2.37305 17.6504 1.7905 16.3019C1.20794 14.9534 0.916664 13.5194 0.916664 11.9998C0.916664 10.4682 1.20794 9.03116 1.7905 7.68871C2.37305 6.34627 3.16619 5.17328 4.16991 4.16975C5.17344 3.16603 6.34944 2.37289 7.69791 1.79034C9.04639 1.20778 10.4804 0.916504 12 0.916504C13.5316 0.916504 14.9687 1.20778 16.3111 1.79034C17.6536 2.37289 18.8266 3.16603 19.8301 4.16975C20.8338 5.17328 21.6269 6.34627 22.2095 7.68871C22.7921 9.03116 23.0833 10.4682 23.0833 11.9998C23.0833 13.5194 22.7921 14.9534 22.2095 16.3019C21.6269 17.6504 20.8338 18.8264 19.8301 19.8299C18.8266 20.8336 17.6536 21.6268 16.3111 22.2093C14.9687 22.7919 13.5316 23.0832 12 23.0832ZM12 21.3084C12.5954 20.5187 13.0965 19.7223 13.5032 18.919C13.91 18.1158 14.2414 17.2378 14.4972 16.285H9.50275C9.77361 17.2677 10.1087 18.1607 10.5081 18.964C10.9073 19.7672 11.4046 20.5487 12 21.3084ZM9.74075 20.9875C9.29353 20.3459 8.8919 19.6164 8.53587 18.7992C8.17985 17.9817 7.90315 17.1437 7.70579 16.285H3.74816C4.36436 17.4966 5.19075 18.5145 6.22733 19.3388C7.26391 20.1628 8.43505 20.7124 9.74075 20.9875ZM14.2592 20.9875C15.5649 20.7124 16.7361 20.1628 17.7727 19.3388C18.8092 18.5145 19.6356 17.4966 20.2518 16.285H16.2942C16.0593 17.1511 15.7639 17.9928 15.4078 18.8103C15.052 19.6277 14.6691 20.3535 14.2592 20.9875ZM3.01433 14.535H7.35141C7.27811 14.1014 7.22493 13.6762 7.19187 13.2595C7.15901 12.843 7.14258 12.4231 7.14258 11.9998C7.14258 11.5765 7.15901 11.1566 7.19187 10.7401C7.22493 10.3234 7.27811 9.89828 7.35141 9.46467H3.01433C2.90214 9.86095 2.81619 10.273 2.7565 10.7008C2.69661 11.1285 2.66666 11.5616 2.66666 11.9998C2.66666 12.4381 2.69661 12.8711 2.7565 13.2989C2.81619 13.7267 2.90214 14.1387 3.01433 14.535ZM9.10112 14.535H14.8989C14.972 14.1014 15.0251 13.68 15.0581 13.2709C15.091 12.8618 15.1074 12.4381 15.1074 11.9998C15.1074 11.5616 15.091 11.1379 15.0581 10.7288C15.0251 10.3196 14.972 9.89828 14.8989 9.46467H9.10112C9.02801 9.89828 8.97493 10.3196 8.94187 10.7288C8.90901 11.1379 8.89258 11.5616 8.89258 11.9998C8.89258 12.4381 8.90901 12.8618 8.94187 13.2709C8.97493 13.68 9.02801 14.1014 9.10112 14.535ZM16.6486 14.535H20.9857C21.0979 14.1387 21.1838 13.7267 21.2435 13.2989C21.3034 12.8711 21.3333 12.4381 21.3333 11.9998C21.3333 11.5616 21.3034 11.1285 21.2435 10.7008C21.1838 10.273 21.0979 9.86095 20.9857 9.46467H16.6486C16.7219 9.89828 16.7751 10.3234 16.8081 10.7401C16.841 11.1566 16.8574 11.5765 16.8574 11.9998C16.8574 12.4231 16.841 12.843 16.8081 13.2595C16.7751 13.6762 16.7219 14.1014 16.6486 14.535ZM16.2942 7.71467H20.2518C19.6282 6.48812 18.8075 5.4702 17.7896 4.66092C16.7717 3.85184 15.5949 3.29845 14.2592 3.00075C14.7065 3.67975 15.1043 4.42243 15.4527 5.2288C15.8014 6.03496 16.0819 6.86359 16.2942 7.71467ZM9.50275 7.71467H14.4972C14.2264 6.73934 13.8857 5.84071 13.4752 5.0188C13.0646 4.19688 12.5728 3.42105 12 2.6913C11.4272 3.42105 10.9354 4.19688 10.5247 5.0188C10.1143 5.84071 9.77361 6.73934 9.50275 7.71467ZM3.74816 7.71467H7.70579C7.91812 6.86359 8.19861 6.03496 8.54725 5.2288C8.89569 4.42243 9.29353 3.67975 9.74075 3.00075C8.39753 3.29845 7.2189 3.85378 6.20487 4.66675C5.19065 5.47953 4.37175 6.4955 3.74816 7.71467Z" fill="#2F4858"/>
</svg>
